REM DIRINDEX 1\2,1\3,1\4,1\6,1\5\7,1\5\8
REM DIRNAME folder01,folder02,folder03,folder04,folder05,folder06,folder07,folder08
TITLE ""
FILE "DB4500_5th_3B_22.mp3" MP3
  TRACK 01 AUDIO
    TITLE "0:"
    INDEX 01 00:00:00
  TRACK 02 AUDIO
    TITLE "2:cjc114_2394"
    INDEX 01 00:00:05
  TRACK 03 AUDIO
    TITLE "0:"
    INDEX 01 00:01:22
  TRACK 04 AUDIO
    TITLE "3:cjc114_2395"
    INDEX 01 00:01:46
  TRACK 05 AUDIO
    TITLE "0:"
    INDEX 01 00:02:61
  TRACK 06 AUDIO
    TITLE "4:cjc114_2396"
    INDEX 01 00:03:12
  TRACK 07 AUDIO
    TITLE "0:"
    INDEX 01 00:07:29
  TRACK 08 AUDIO
    TITLE "2:cjc114_2397"
    INDEX 01 00:08:05
  TRACK 09 AUDIO
    TITLE "0:"
    INDEX 01 00:09:10
  TRACK 10 AUDIO
    TITLE "3:cjc114_2398"
    INDEX 01 00:09:38
  TRACK 11 AUDIO
    TITLE "0:"
    INDEX 01 00:10:51
  TRACK 12 AUDIO
    TITLE "4:cjc114_2399"
    INDEX 01 00:11:01
  TRACK 13 AUDIO
    TITLE "0:"
    INDEX 01 00:14:41
  TRACK 14 AUDIO
    TITLE "2:cjc114_2400"
    INDEX 01 00:15:17
  TRACK 15 AUDIO
    TITLE "0:"
    INDEX 01 00:16:20
  TRACK 16 AUDIO
    TITLE "3:cjc114_2401"
    INDEX 01 00:16:48
  TRACK 17 AUDIO
    TITLE "0:"
    INDEX 01 00:17:69
  TRACK 18 AUDIO
    TITLE "4:cjc114_2402"
    INDEX 01 00:18:15
  TRACK 19 AUDIO
    TITLE "0:"
    INDEX 01 00:22:21
  TRACK 20 AUDIO
    TITLE "2:cjc114_2403"
    INDEX 01 00:22:70
  TRACK 21 AUDIO
    TITLE "0:"
    INDEX 01 00:24:08
  TRACK 22 AUDIO
    TITLE "3:cjc114_2404"
    INDEX 01 00:24:29
  TRACK 23 AUDIO
    TITLE "0:"
    INDEX 01 00:25:54
  TRACK 24 AUDIO
    TITLE "4:cjc114_2405"
    INDEX 01 00:26:05
  TRACK 25 AUDIO
    TITLE "0:"
    INDEX 01 00:29:58
  TRACK 26 AUDIO
    TITLE "2:cjc114_2406"
    INDEX 01 00:30:32
  TRACK 27 AUDIO
    TITLE "0:"
    INDEX 01 00:31:39
  TRACK 28 AUDIO
    TITLE "3:cjc114_2407"
    INDEX 01 00:31:65
  TRACK 29 AUDIO
    TITLE "0:"
    INDEX 01 00:33:15
  TRACK 30 AUDIO
    TITLE "4:cjc114_2408"
    INDEX 01 00:33:40
  TRACK 31 AUDIO
    TITLE "0:"
    INDEX 01 00:38:08
  TRACK 32 AUDIO
    TITLE "2:cjc114_2409"
    INDEX 01 00:38:57
  TRACK 33 AUDIO
    TITLE "0:"
    INDEX 01 00:39:74
  TRACK 34 AUDIO
    TITLE "3:cjc114_2410"
    INDEX 01 00:40:21
  TRACK 35 AUDIO
    TITLE "0:"
    INDEX 01 00:41:45
  TRACK 36 AUDIO
    TITLE "4:cjc114_2411"
    INDEX 01 00:41:69
  TRACK 37 AUDIO
    TITLE "0:"
    INDEX 01 00:44:67
  TRACK 38 AUDIO
    TITLE "2:cjc114_2412"
    INDEX 01 00:45:41
  TRACK 39 AUDIO
    TITLE "0:"
    INDEX 01 00:46:45
  TRACK 40 AUDIO
    TITLE "3:cjc114_2413"
    INDEX 01 00:46:70
  TRACK 41 AUDIO
    TITLE "0:"
    INDEX 01 00:48:12
  TRACK 42 AUDIO
    TITLE "4:cjc114_2414"
    INDEX 01 00:48:36
  TRACK 43 AUDIO
    TITLE "0:"
    INDEX 01 00:51:11
  TRACK 44 AUDIO
    TITLE "2:cjc114_2415"
    INDEX 01 00:51:60
  TRACK 45 AUDIO
    TITLE "0:"
    INDEX 01 00:53:00
  TRACK 46 AUDIO
    TITLE "3:cjc114_2416"
    INDEX 01 00:53:25
  TRACK 47 AUDIO
    TITLE "0:"
    INDEX 01 00:54:42
  TRACK 48 AUDIO
    TITLE "4:cjc114_2417"
    INDEX 01 00:54:70
  TRACK 49 AUDIO
    TITLE "0:"
    INDEX 01 00:57:66
  TRACK 50 AUDIO
    TITLE "2:cjc114_2418"
    INDEX 01 00:58:40
  TRACK 51 AUDIO
    TITLE "0:"
    INDEX 01 00:59:69
  TRACK 52 AUDIO
    TITLE "3:cjc114_2419"
    INDEX 01 01:00:17
  TRACK 53 AUDIO
    TITLE "0:"
    INDEX 01 01:01:48
  TRACK 54 AUDIO
    TITLE "4:cjc114_2420"
    INDEX 01 01:01:72
  TRACK 55 AUDIO
    TITLE "0:"
    INDEX 01 01:06:32
  TRACK 56 AUDIO
    TITLE "2:cjc114_2421"
    INDEX 01 01:07:10
  TRACK 57 AUDIO
    TITLE "0:"
    INDEX 01 01:08:17
  TRACK 58 AUDIO
    TITLE "3:cjc114_2422"
    INDEX 01 01:08:44
  TRACK 59 AUDIO
    TITLE "0:"
    INDEX 01 01:09:57
  TRACK 60 AUDIO
    TITLE "4:cjc114_2423"
    INDEX 01 01:10:22
  TRACK 61 AUDIO
    TITLE "0:"
    INDEX 01 01:14:31
  TRACK 62 AUDIO
    TITLE "2:cjc114_2424"
    INDEX 01 01:15:09
  TRACK 63 AUDIO
    TITLE "0:"
    INDEX 01 01:16:38
  TRACK 64 AUDIO
    TITLE "3:cjc114_2425"
    INDEX 01 01:16:67
  TRACK 65 AUDIO
    TITLE "0:"
    INDEX 01 01:19:13
  TRACK 66 AUDIO
    TITLE "4:cjc114_2426"
    INDEX 01 01:19:42
  TRACK 67 AUDIO
    TITLE "0:"
    INDEX 01 01:24:16
  TRACK 68 AUDIO
    TITLE "2:cjc114_2427"
    INDEX 01 01:25:08
  TRACK 69 AUDIO
    TITLE "0:"
    INDEX 01 01:26:27
  TRACK 70 AUDIO
    TITLE "3:cjc114_2428"
    INDEX 01 01:26:54
  TRACK 71 AUDIO
    TITLE "0:"
    INDEX 01 01:28:22
  TRACK 72 AUDIO
    TITLE "4:cjc114_2429"
    INDEX 01 01:28:49
  TRACK 73 AUDIO
    TITLE "0:"
    INDEX 01 01:32:06
  TRACK 74 AUDIO
    TITLE "2:cjc114_2430"
    INDEX 01 01:32:59
  TRACK 75 AUDIO
    TITLE "0:"
    INDEX 01 01:33:60
  TRACK 76 AUDIO
    TITLE "3:cjc114_2431"
    INDEX 01 01:34:14
  TRACK 77 AUDIO
    TITLE "0:"
    INDEX 01 01:35:55
  TRACK 78 AUDIO
    TITLE "4:cjc114_2432"
    INDEX 01 01:36:09
  TRACK 79 AUDIO
    TITLE "0:"
    INDEX 01 01:39:70
